<svg width="428" height="428" viewBox="0 0 428 428" fill="none" xmlns="http://www.w3.org/2000/svg">
<g clip-path="url(#clip0_3504_1892)">
<path d="M125.799 243.7C138.099 243.7 150.099 239.6 159.799 232.1L81.7994 154.1C62.9994 178.4 67.4994 213.4 91.7994 232.2C101.599 239.6 113.499 243.7 125.799 243.7Z" fill="white"/>
<path d="M357.799 188C357.799 175.7 353.699 163.7 346.199 154L268.199 232C292.499 250.8 327.399 246.3 346.199 222C353.699 212.3 357.799 200.3 357.799 188Z" fill="white"/>
<path d="M397.1 103.1L362.6 137.6C390.4 170.9 386 220.5 352.7 248.3C323.5 272.7 281.1 272.7 251.9 248.3L214 286.2L176.2 248.4C142.9 276.2 93.3 271.8 65.5 238.5C41.1 209.3 41.1 166.9 65.5 137.7L47.8 120L31 103.1C10.7 136.5 0 174.9 0 214C0 332.2 95.8 428 214 428C332.2 428 428 332.2 428 214C428.1 174.9 417.3 136.5 397.1 103.1Z" fill="white"/>
<path d="M368.799 66.3004C287.299 -19.1996 151.899 -22.3996 66.3992 59.1004C63.8992 61.5004 61.4992 63.9004 59.1992 66.3004C53.8992 71.9004 48.8992 77.7004 44.1992 83.8004L213.999 253.7L383.799 83.8004C379.199 77.7004 374.099 71.9004 368.799 66.3004ZM213.999 28.0004C263.999 28.0004 310.599 47.3004 345.599 82.5004L213.999 214.1L82.3992 82.5004C117.399 47.3004 163.999 28.0004 213.999 28.0004Z" fill="white"/>
</g>
<defs>
<clipPath id="clip0_3504_1892">
<rect width="428" height="428" fill="white"/>
</clipPath>
</defs>
</svg>
